<?xml version="1.0" encoding="UTF-8"?>
<svg id="Capa_3" data-name="Capa 3" xmlns="http://www.w3.org/2000/svg" version="1.1" viewBox="0 0 1080 1080">
  <defs>
    <style>
      .cls-1 {
        fill: #b8860b;
      }

      .cls-1, .cls-2 {
        stroke-width: 0px;
      }

      .cls-2 {
        fill: #8b0000;
      }
    </style>
  </defs>
  <g>
    <rect class="cls-1" x="32" y="48" width="1016" height="77.8"/>
    <rect class="cls-1" x="32" y="954.1" width="1016" height="77.8"/>
  </g>
  <path class="cls-2" d="M364.9,891.1c-46.7,0-90.3-8.8-129.6-26.2-39.3-17.4-75.6-44-107.9-79-31.7-34.3-55.8-72.2-71.6-112.9-15.8-40.7-23.8-85.5-23.8-133s7.9-94,23.4-135c15.4-40.9,39-78.7,69.9-112.4,31.7-34.5,67.8-60.6,107.2-77.8,39.4-17.2,83.5-25.9,131-25.9s122.5,16.3,175.1,48.5h.2c1.6,1,2.8,1.9,3.8,2.5-1.1,7.9-4.7,24.7-15.3,59.8-5.1,16.7-8.8,27.5-11.4,34.4-15.5-6.9-31.6-14-48.8-21.5-24.7-10.8-51.9-16.3-80.9-16.3-65.6,0-121.1,24.6-164.8,73.2-43.2,47.9-65.1,105.3-65.1,170.5s21.9,120.8,65.2,167.8c44.6,48.9,100.1,73.7,164.7,73.7s71.2-8.8,105.6-26.3c9.5-4.8,17.6-8.9,24.3-12.5,2.1,7.5,4.7,18.5,7.8,34.7h0c7.9,39.9,10.1,59.7,10.5,69.6-3.5,3.2-17.8,13.5-69.1,26.6-45.6,11.6-79.3,17.5-100.2,17.5Z"/>
  <path class="cls-2" d="M803.3,891.1c-35,0-67.5-6.4-96.5-19.1-29-12.7-55.6-32-79.2-57.6h0c-23.1-24.9-40.7-52.7-52.2-82.6-11.6-30-17.4-63.2-17.4-98.8s5.9-68.7,17.4-98.7c11.5-29.9,29.1-57.7,52.2-82.5,23.6-25.2,50.4-44.3,79.4-56.8,29.1-12.5,61.5-18.9,96.3-18.9s66.8,6.3,95.7,18.9c28.9,12.5,55.4,31.6,78.9,56.8h0c23.3,24.7,41,52.3,52.5,82,11.6,29.8,17.5,62.8,17.5,98.1s-5.9,68.8-17.4,98.9c-11.5,30-29.1,57.9-52.2,82.9h0c-23.5,25.8-50.1,45.3-79.1,58.1-28.9,12.8-61.2,19.2-96,19.2ZM803.3,446.8c-50.4,0-92.7,19.2-125.9,56.9h-.1c-30.9,36-46.6,79.5-46.6,129.4s15.9,92.5,47.1,128.7c33.5,38.9,75.7,58.7,125.4,58.7s92.4-19.8,125.5-58.8c30.8-36.1,46.5-79.4,46.5-128.6s-15.7-93.2-46.6-128.7c-32.8-38.2-75-57.6-125.4-57.6Z"/>
  <polygon class="cls-2" points="838.3 598.3 838.3 319.7 941.9 319.7 941.9 249.1 838.3 249.1 838.3 188.9 767.7 188.9 767.7 249.1 664.1 249.1 664.1 319.7 767.7 319.7 767.7 598.3 604 598.3 604 668.9 1002.1 668.9 1002.1 598.3 838.3 598.3"/>
</svg>